<?xml version="1.0" standalone="no"?>
<!DOCTYPE svg PUBLIC "-//W3C//DTD SVG 20010904//EN"
 "http://www.w3.org/TR/2001/REC-SVG-20010904/DTD/svg10.dtd">
<svg version="1.0" xmlns="http://www.w3.org/2000/svg"
 width="512.000000pt" height="512.000000pt" viewBox="0 0 512.000000 512.000000"
 preserveAspectRatio="xMidYMid meet">
<metadata>
Created by potrace 1.14, written by Peter Selinger 2001-2017
</metadata>
<g transform="translate(0.000000,512.000000) scale(0.100000,-0.100000)"
fill="#000000" stroke="none">
<path d="M2504 4725 c-44 -18 -82 -68 -88 -118 -4 -23 -5 -202 -4 -397 3 -404
3 -401 86 -441 69 -34 135 -15 186 55 20 27 21 41 23 409 2 423 1 424 -61 472
-42 32 -96 40 -142 20z"/>
<path d="M790 4012 c-68 -34 -99 -119 -68 -189 15 -34 503 -524 550 -553 83
-50 196 1 214 97 14 74 0 92 -280 373 -146 146 -278 270 -293 277 -40 17 -83
16 -123 -5z"/>
<path d="M4207 4017 c-15 -7 -147 -131 -293 -277 -280 -281 -294 -299 -280
-373 18 -98 130 -148 216 -96 48 30 539 524 550 555 47 124 -73 243 -193 191z"/>
<path d="M2465 3253 c-337 -37 -583 -152 -802 -373 -179 -180 -293 -398 -342
-655 -18 -93 -20 -152 -20 -819 -1 -396 -3 -722 -6 -724 -2 -2 -62 -5 -134 -6
-124 -2 -130 -3 -165 -30 -86 -65 -88 -174 -3 -237 l32 -24 1525 -3 c1472 -2
1526 -2 1560 16 72 39 101 139 58 202 -47 68 -63 74 -213 74 l-135 1 -1 690
c0 380 -2 706 -4 725 -14 182 -57 331 -144 497 -175 331 -506 577 -876 649
-76 14 -266 25 -330 17z"/>
<path d="M80 2306 c-53 -26 -84 -84 -77 -141 7 -57 31 -91 79 -116 37 -19 57
-20 423 -17 369 3 385 4 411 24 47 34 66 68 66 116 1 57 -25 105 -72 133 -34
19 -51 20 -414 20 -353 1 -381 -1 -416 -19z"/>
<path d="M4220 2309 c-53 -24 -83 -70 -83 -129 0 -62 26 -105 79 -131 40 -19
58 -20 426 -17 351 3 385 5 410 21 45 31 62 66 62 129 1 50 -3 61 -29 89 -17
17 -41 36 -55 42 -16 7 -156 11 -399 12 -329 1 -378 -1 -411 -16z"/>
</g>
</svg>
